<!DOCTYPE svg PUBLIC "-//W3C//DTD SVG 1.1//EN" "http://www.w3.org/Graphics/SVG/1.1/DTD/svg11.dtd">
<!-- Uploaded to: SVG Repo, www.svgrepo.com, Transformed by: SVG Repo Mixer Tools -->
<svg fill="#ffffff" height="64px" width="64px" version="1.1" id="Capa_1" xmlns="http://www.w3.org/2000/svg" xmlns:xlink="http://www.w3.org/1999/xlink" viewBox="0 0 439.03 439.03" xml:space="preserve" stroke="#ffffff">
<g id="SVGRepo_bgCarrier" stroke-width="0"/>
<g id="SVGRepo_iconCarrier"> <g> <path d="M151.813,226.521c7.499,7.499,17.351,11.249,27.201,11.249s19.701-3.75,27.2-11.249 c7.267-7.266,11.269-16.926,11.269-27.201c0-10.275-4.002-19.936-11.268-27.201c-7.266-7.266-16.926-11.268-27.201-11.268 s-19.936,4.001-27.202,11.268C136.814,187.116,136.814,211.521,151.813,226.521L151.813,226.521z M162.419,182.724 c4.434-4.433,10.327-6.874,16.596-6.874s12.161,2.441,16.595,6.875c4.433,4.432,6.874,10.326,6.874,16.594 s-2.441,12.162-6.875,16.595c-9.148,9.149-24.037,9.15-33.189,0l0.001,0C153.269,206.763,153.269,191.875,162.419,182.724z"/> <path d="M156.086,293.725c-14.998,14.999-14.998,39.404,0,54.403c7.5,7.5,17.351,11.249,27.201,11.249 c9.852,0,19.702-3.75,27.202-11.249c14.998-14.999,14.998-39.404,0-54.403C195.488,278.725,171.085,278.727,156.086,293.725z M199.882,337.521c-9.149,9.149-24.037,9.151-33.188,0c-9.15-9.15-9.15-24.04,0-33.19c9.148-9.15,24.038-9.151,33.188,0 C209.032,313.481,209.032,328.371,199.882,337.521z"/> <path d="M243.56,219.669l-131.666,67.56c-3.686,1.891-5.14,6.412-3.249,10.097c1.329,2.59,3.955,4.078,6.679,4.078 c1.152,0,2.322-0.267,3.418-0.829l131.666-67.56c3.686-1.891,5.14-6.412,3.249-10.097 C251.766,219.233,247.246,217.779,243.56,219.669z"/> <path d="M433.716,48.512C433.716,21.762,411.953,0,385.204,0H332.88c-26.749,0-48.512,21.762-48.512,48.512v34.124l-70.479-6.933 c-9.06-0.891-17.932,2.288-24.362,8.719L11.682,262.267c-8.489,8.49-8.489,22.305,0,30.795l139.591,139.59 c4.113,4.113,9.581,6.378,15.397,6.378s11.285-2.265,15.398-6.378l177.845-177.844c6.431-6.432,9.608-15.311,8.718-24.362 l-8.665-88.089l59.542-59.541C428.67,73.653,433.716,61.47,433.716,48.512z M349.306,244.201L171.461,422.045 c-1.279,1.28-2.981,1.985-4.791,1.985s-3.511-0.705-4.79-1.984v0L22.289,282.456c-2.642-2.642-2.642-6.941,0-9.583L200.134,95.029 c2.884-2.885,6.745-4.471,10.775-4.471c0.502,0,1.006,0.025,1.511,0.074l71.948,7.077v22.743 c-5.916,1.374-11.348,4.365-15.749,8.767c-6.21,6.21-9.63,14.466-9.63,23.249s3.42,17.039,9.63,23.248 c6.21,6.21,14.466,9.63,23.249,9.63c8.782,0,17.038-3.42,23.248-9.63h-0.001c6.211-6.209,9.631-14.466,9.631-23.248 s-3.42-17.039-9.63-23.249c-4.401-4.401-9.833-7.392-15.748-8.766V99.184l29.213,2.873c7.226,0.711,12.985,6.471,13.696,13.696 l11.426,116.161C354.152,236.479,352.549,240.958,349.306,244.201z M285.529,135.759c3.052,11.178,11.868,19.994,23.046,23.046 c-0.885,2.336-2.247,4.484-4.065,6.303c-0.001,0-0.001,0-0.001,0c-3.376,3.377-7.865,5.237-12.641,5.237 c-4.776,0-9.266-1.86-12.643-5.237c-3.376-3.377-5.236-7.866-5.236-12.642s1.86-9.265,5.237-12.642 C281.045,138.006,283.194,136.644,285.529,135.759z M408.9,72.209l-50.834,50.833l-0.861-8.758 c-1.409-14.326-12.83-25.746-27.155-27.155l-30.682-3.018V48.512C299.368,30.033,314.401,15,332.88,15h52.324 c18.479,0,33.512,15.033,33.512,33.512C418.716,57.464,415.23,65.88,408.9,72.209z"/> </g> </g>
</svg>