<svg width="36" height="36" viewBox="0 0 36 36" fill="none" xmlns="http://www.w3.org/2000/svg">
  <path d="M24.84 9.333C25.363 9.333 25.795 9.794 25.849 10.42L25.859 10.54V26.71L29.16 22.015C29.411 21.656 29.928 21.655 30.285 22.007C30.617 22.34 30.653 22.96 30.292 23.41L30.172 23.532L24.025 29.25C23.98 29.3 23.933 29.348 23.883 29.394L24.025 29.25C23.944 29.328 23.858 29.4 23.767 29.462C23.742 29.478 23.716 29.495 23.69 29.512C23.664 29.53 23.637 29.547 23.61 29.563C23.583 29.579 23.555 29.594 23.526 29.607C23.49 29.622 23.453 29.636 23.415 29.648C23.383 29.658 23.35 29.667 23.317 29.675C23.27 29.687 23.223 29.697 23.175 29.705C23.137 29.71 23.098 29.715 23.06 29.718C23.037 29.72 23.013 29.722 22.99 29.723C22.957 29.725 22.924 29.726 22.891 29.726C22.883 29.726 22.875 29.727 22.867 29.727H22.853C22.82 29.726 22.788 29.725 22.755 29.723L22.853 29.727C22.798 29.727 22.743 29.723 22.689 29.715C22.65 29.71 22.61 29.703 22.571 29.695C22.538 29.688 22.504 29.679 22.471 29.668C22.42 29.653 22.369 29.635 22.318 29.615C22.286 29.602 22.255 29.589 22.223 29.574C22.17 29.55 22.116 29.523 22.063 29.494C22.027 29.474 21.99 29.454 21.953 29.433L21.942 29.423C21.891 29.387 21.841 29.348 21.792 29.307L21.78 29.298L16.633 23.533C16.374 23.181 16.376 22.637 16.735 22.285C17.06 21.942 17.526 21.894 17.876 22.175L17.98 22.267L21.283 25.576V10.54C21.283 10.013 21.82 9.333 22.347 9.333H24.84ZM11.74 6.11L11.765 6.109C11.81 6.11 11.855 6.112 11.9 6.116L11.74 6.11C11.82 6.11 11.899 6.113 11.978 6.121C12.019 6.124 12.06 6.129 12.1 6.137C12.136 6.143 12.172 6.151 12.207 6.161C12.242 6.171 12.276 6.183 12.31 6.197C12.347 6.213 12.383 6.231 12.418 6.251C12.459 6.274 12.499 6.298 12.539 6.324C12.571 6.344 12.603 6.365 12.634 6.387L12.785 6.491L18.013 11.47C18.362 11.808 18.361 12.349 18.013 12.689C17.765 12.952 17.297 12.981 16.978 12.611L16.875 12.514L12.677 8.65V26.096C12.677 26.617 12.14 27.21 11.54 27.21C10.988 27.21 10.656 26.721 10.593 26.224L10.58 26.096V8.655L6.382 12.514C6.143 12.756 5.716 12.786 5.386 12.515L5.267 12.396C5.017 12.135 4.972 11.654 5.182 11.339L5.292 11.193L10.52 6.49L10.607 6.415C10.628 6.398 10.65 6.382 10.673 6.366L10.52 6.49C10.583 6.435 10.65 6.383 10.72 6.336C10.747 6.318 10.774 6.301 10.801 6.285C10.828 6.27 10.855 6.256 10.882 6.242C10.91 6.228 10.938 6.215 10.967 6.202C10.999 6.188 11.031 6.176 11.064 6.164C11.083 6.157 11.102 6.15 11.121 6.143C11.154 6.132 11.187 6.122 11.221 6.113C11.241 6.108 11.261 6.103 11.282 6.099C11.317 6.091 11.353 6.085 11.388 6.079C11.396 6.08 11.404 6.08 11.411 6.08C11.453 6.08 11.496 6.084 11.54 6.089C11.548 6.09 11.556 6.09 11.564 6.09H11.74Z" fill="#2bb5a6"/>
</svg>
