<svg width="32" height="32" viewBox="0 0 32 32" fill="none" xmlns="http://www.w3.org/2000/svg">
<path fill-rule="evenodd" clip-rule="evenodd" d="M23.1839 18.2773C25.4719 18.2773 27.3332 20.1293 27.3332 22.4053C27.3332 24.6813 25.4719 26.5333 23.1839 26.5333C20.8945 26.5333 19.0319 24.6813 19.0319 22.4053C19.0319 20.1293 20.8945 18.2773 23.1839 18.2773ZM23.1839 20.2773C21.9972 20.2773 21.0319 21.2319 21.0319 22.4053C21.0319 23.5799 21.9972 24.5333 23.1839 24.5333C24.3692 24.5333 25.3332 23.5799 25.3332 22.4053C25.3332 21.2319 24.3692 20.2773 23.1839 20.2773ZM13.4404 21.457C13.9924 21.457 14.4404 21.905 14.4404 22.457C14.4404 23.009 13.9924 23.457 13.4404 23.457H5.03907C4.48707 23.457 4.03907 23.009 4.03907 22.457C4.03907 21.905 4.48707 21.457 5.03907 21.457H13.4404ZM8.15067 5.33325C10.44 5.33325 12.3013 7.18658 12.3013 9.46258C12.3013 11.7386 10.44 13.5893 8.15067 13.5893C5.86267 13.5893 4 11.7386 4 9.46258C4 7.18658 5.86267 5.33325 8.15067 5.33325ZM8.15067 7.33325C6.96533 7.33325 6 8.28792 6 9.46258C6 10.6359 6.96533 11.5893 8.15067 11.5893C9.33733 11.5893 10.3013 10.6359 10.3013 9.46258C10.3013 8.28792 9.33733 7.33325 8.15067 7.33325ZM25.5881 8.53379C26.1401 8.53379 26.5881 8.98179 26.5881 9.53378C26.5881 10.0858 26.1401 10.5338 25.5881 10.5338H17.1881C16.6361 10.5338 16.1881 10.0858 16.1881 9.53378C16.1881 8.98179 16.6361 8.53379 17.1881 8.53379H25.5881Z" fill="black"/>
</svg>
