<svg width="22" height="17" viewBox="0 0 22 17" fill="none" xmlns="http://www.w3.org/2000/svg">
<path d="M18.6244 1.39107C17.1979 0.73639 15.6926 0.269137 14.1461 0.000955089C14.1321 -0.00140458 14.1177 0.000633386 14.1049 0.00678885C14.0921 0.0129443 14.0815 0.0229149 14.0746 0.0353297C13.8807 0.379076 13.6662 0.828696 13.5163 1.18069C11.8493 0.927707 10.1537 0.927707 8.48664 1.18069C8.31946 0.788574 8.13033 0.406181 7.92015 0.0353297C7.9131 0.0230509 7.90249 0.0131951 7.88973 0.00705946C7.87697 0.000923784 7.86265 -0.00120429 7.84865 0.000955089C6.30179 0.267702 4.79618 0.735197 3.37032 1.39107C3.35812 1.39572 3.34791 1.40447 3.34145 1.41582C0.489727 5.6769 -0.29264 9.83348 0.0909813 13.9378C0.0923563 13.9571 0.104731 13.9763 0.119856 13.9887C1.78046 15.2188 3.63788 16.1579 5.61292 16.7662C5.62687 16.7706 5.64185 16.7704 5.6557 16.7657C5.66955 16.761 5.68153 16.752 5.68992 16.74C6.11342 16.1625 6.49016 15.5534 6.81466 14.9127C6.82142 14.8995 6.82374 14.8844 6.82126 14.8698C6.81878 14.8552 6.81165 14.8418 6.80091 14.8315C6.79381 14.8248 6.78537 14.8197 6.77616 14.8164C6.18376 14.5888 5.61003 14.3152 5.06018 13.9983C5.04482 13.9896 5.0334 13.9753 5.02828 13.9584C5.02316 13.9415 5.02474 13.9233 5.03268 13.9076C5.03736 13.8973 5.04443 13.8884 5.0533 13.8814C5.1688 13.7948 5.2843 13.7041 5.3943 13.6133C5.40402 13.6055 5.41568 13.6005 5.42803 13.5988C5.44038 13.5971 5.45296 13.5988 5.46442 13.6037C9.06551 15.2482 12.9636 15.2482 16.5207 13.6037C16.5326 13.5985 16.5456 13.5967 16.5585 13.5984C16.5713 13.6001 16.5834 13.6053 16.5936 13.6133C16.7036 13.7041 16.8191 13.7948 16.9346 13.8814C16.9439 13.8883 16.9514 13.8973 16.9564 13.9078C16.9614 13.9182 16.9638 13.9298 16.9632 13.9413C16.9627 13.9529 16.9593 13.9642 16.9533 13.9741C16.9473 13.9841 16.939 13.9924 16.9291 13.9983C16.3805 14.3181 15.806 14.5913 15.2117 14.815C15.2022 14.8185 15.1936 14.824 15.1865 14.8311C15.1794 14.8382 15.1739 14.8468 15.1704 14.8563C15.1673 14.8655 15.166 14.8752 15.1667 14.8849C15.1674 14.8946 15.1701 14.9041 15.1746 14.9127C15.5046 15.552 15.8827 16.1625 16.2979 16.74C16.3063 16.752 16.3183 16.761 16.3322 16.7657C16.346 16.7704 16.361 16.7706 16.3749 16.7662C18.3533 16.1598 20.2137 15.2205 21.8763 13.9887C21.8846 13.9829 21.8915 13.9754 21.8965 13.9665C21.9015 13.9577 21.9044 13.9479 21.9051 13.9378C22.3644 9.19273 21.1365 5.07053 18.6519 1.41719C18.6494 1.41116 18.6457 1.40571 18.6409 1.40121C18.6362 1.39671 18.6306 1.39326 18.6244 1.39107ZM7.35228 11.4381C6.26742 11.4381 5.37505 10.4426 5.37505 9.22161C5.37505 7.99925 6.25092 7.00376 7.35228 7.00376C8.46189 7.00376 9.34601 8.0075 9.32951 9.22161C9.32951 10.4426 8.45364 11.4381 7.35228 11.4381ZM14.6617 11.4381C13.5782 11.4381 12.6845 10.4426 12.6845 9.22161C12.6845 7.99925 13.5603 7.00376 14.6617 7.00376C15.7713 7.00376 16.6568 8.0075 16.6389 9.22161C16.6389 10.4426 15.7713 11.4381 14.6617 11.4381Z" fill="white"/>
</svg>
