<svg width="16" height="16" viewBox="0 0 16 16" fill="none" xmlns="http://www.w3.org/2000/svg">
<path d="M13.708 12.1328C14.4261 11.2689 14.9255 10.2447 15.164 9.14691C15.4025 8.04913 15.3731 6.91005 15.0783 5.82602C14.7835 4.742 14.232 3.74493 13.4703 2.91915C12.7087 2.09338 11.7593 1.46319 10.7026 1.08191C9.64592 0.700623 8.51292 0.579455 7.39948 0.728655C6.28604 0.877855 5.22491 1.29303 4.30586 1.93907C3.3868 2.5851 2.63687 3.44299 2.11949 4.44015C1.60211 5.43731 1.33251 6.54442 1.3335 7.66782C1.33388 9.30091 1.90937 10.8817 2.959 12.1328L2.949 12.1413C2.984 12.1833 3.024 12.2193 3.06 12.2608C3.105 12.3123 3.1535 12.3608 3.2 12.4108C3.34 12.5628 3.484 12.7088 3.635 12.8458C3.681 12.8878 3.7285 12.9268 3.775 12.9668C3.935 13.1048 4.0995 13.2358 4.27 13.3578C4.292 13.3728 4.312 13.3923 4.334 13.4078V13.4018C5.50505 14.2259 6.90205 14.6682 8.334 14.6682C9.76595 14.6682 11.1629 14.2259 12.334 13.4018V13.4078C12.356 13.3923 12.3755 13.3728 12.398 13.3578C12.568 13.2353 12.733 13.1048 12.893 12.9668C12.9395 12.9268 12.987 12.8873 13.033 12.8458C13.184 12.7083 13.328 12.5628 13.468 12.4108C13.5145 12.3608 13.5625 12.3123 13.608 12.2608C13.6435 12.2193 13.684 12.1833 13.719 12.1408L13.708 12.1328ZM8.3335 3.66782C8.77851 3.66782 9.21352 3.79978 9.58353 4.04701C9.95354 4.29424 10.2419 4.64564 10.4122 5.05678C10.5825 5.46791 10.6271 5.92031 10.5403 6.35677C10.4534 6.79323 10.2392 7.19414 9.92449 7.50881C9.60982 7.82347 9.20891 8.03777 8.77245 8.12458C8.336 8.2114 7.88359 8.16684 7.47246 7.99654C7.06133 7.82625 6.70993 7.53786 6.46269 7.16785C6.21546 6.79784 6.0835 6.36282 6.0835 5.91782C6.0835 5.32108 6.32055 4.74878 6.74251 4.32683C7.16447 3.90487 7.73676 3.66782 8.3335 3.66782ZM4.337 12.1328C4.34567 11.4763 4.61247 10.8496 5.07968 10.3883C5.54688 9.92697 6.17693 9.66815 6.8335 9.66782H9.8335C10.4901 9.66815 11.1201 9.92697 11.5873 10.3883C12.0545 10.8496 12.3213 11.4763 12.33 12.1328C11.2334 13.121 9.80963 13.6679 8.3335 13.6679C6.85737 13.6679 5.43358 13.121 4.337 12.1328Z" fill="white"/>
</svg>
