<svg width="16" height="16" viewBox="0 0 16 16" fill="none" xmlns="http://www.w3.org/2000/svg">
<path d="M14.2904 1.7213C13.9569 1.37905 13.4634 1.25154 13.0032 1.38576L2.27216 4.50633C1.78663 4.64122 1.44249 5.02844 1.34978 5.52035C1.25508 6.02098 1.58588 6.6565 2.01806 6.92226L5.37343 8.98452C5.71757 9.19591 6.16175 9.1429 6.44654 8.85567L10.2888 4.98951C10.4822 4.78819 10.8023 4.78819 10.9957 4.98951C11.1891 5.18413 11.1891 5.49954 10.9957 5.70087L7.14682 9.5677C6.86137 9.85425 6.80802 10.3005 7.0181 10.6468L9.06828 14.0358C9.30837 14.4385 9.72188 14.6666 10.1754 14.6666C10.2288 14.6666 10.2888 14.6666 10.3421 14.6599C10.8623 14.5928 11.2758 14.2371 11.4292 13.7338L14.6105 3.01651C14.7506 2.56017 14.6239 2.06356 14.2904 1.7213Z" fill="white"/>
</svg>
