<svg width="61" height="61" viewBox="0 0 61 61" fill="none" xmlns="http://www.w3.org/2000/svg">
<g filter="url(#filter0_d_667_1779)">
<rect x="8" y="4" width="45" height="45" rx="22.5" fill="#F7931A"/>
<path d="M48.3589 30.9536C45.9 40.8158 35.9102 46.8176 26.0459 44.3583C16.1857 41.8997 10.1832 31.9103 12.6432 22.049C15.101 12.1858 25.0908 6.1835 34.9521 8.64217C44.8157 11.1008 50.8181 21.0911 48.3589 30.9536Z" fill="#F7931A"/>
<path d="M39.255 23.9909C39.6546 21.2996 37.6204 19.8529 34.8388 18.8878L35.7412 15.2422L33.538 14.6893L32.6596 18.2389C32.0804 18.0934 31.4856 17.9563 30.8944 17.8203L31.7792 14.2473L29.5774 13.6943L28.6746 17.3387C28.1952 17.2288 27.7245 17.1202 27.2678 17.0057L27.2703 16.9942L24.2321 16.23L23.646 18.6003C23.646 18.6003 25.2806 18.9777 25.2461 19.0009C26.1383 19.2252 26.2996 19.8201 26.2728 20.2916L25.245 24.4448C25.3064 24.4605 25.3861 24.4832 25.474 24.5188C25.4005 24.5004 25.3223 24.4804 25.2411 24.4608L23.8004 30.2788C23.6913 30.5518 23.4146 30.9616 22.7908 30.806C22.8129 30.8382 21.1895 30.4035 21.1895 30.4035L20.0957 32.9437L22.9628 33.6636C23.4962 33.7984 24.0188 33.9393 24.5336 34.0719L23.6219 37.7593L25.8225 38.3123L26.7254 34.664C27.3265 34.8284 27.91 34.98 28.4811 35.123L27.5813 38.754L29.7846 39.307L30.6962 35.6265C34.4531 36.3427 37.2779 36.0539 38.467 32.6311C39.4251 29.8754 38.4193 28.2859 36.4428 27.2493C37.8824 26.9149 38.9667 25.9612 39.2558 23.9912L39.2551 23.9907L39.255 23.9909ZM34.2213 31.1007C33.5404 33.8565 28.934 32.3668 27.4406 31.9933L28.6504 27.1081C30.1438 27.4836 34.9328 28.2268 34.2214 31.1007H34.2213ZM34.9026 23.9509C34.2815 26.4576 30.4476 25.1841 29.2039 24.8718L30.3008 20.4412C31.5445 20.7535 35.5496 21.3363 34.9028 23.9509H34.9026Z" fill="white"/>
</g>
<defs>
<filter id="filter0_d_667_1779" x="0" y="0" width="61" height="61" filterUnits="userSpaceOnUse" color-interpolation-filters="sRGB">
<feFlood flood-opacity="0" result="BackgroundImageFix"/>
<feColorMatrix in="SourceAlpha" type="matrix" values="0 0 0 0 0 0 0 0 0 0 0 0 0 0 0 0 0 0 127 0" result="hardAlpha"/>
<feOffset dy="4"/>
<feGaussianBlur stdDeviation="4"/>
<feComposite in2="hardAlpha" operator="out"/>
<feColorMatrix type="matrix" values="0 0 0 0 0 0 0 0 0 0 0 0 0 0 0 0 0 0 0.08 0"/>
<feBlend mode="normal" in2="BackgroundImageFix" result="effect1_dropShadow_667_1779"/>
<feBlend mode="normal" in="SourceGraphic" in2="effect1_dropShadow_667_1779" result="shape"/>
</filter>
</defs>
</svg>
