<svg width="28" height="28" viewBox="0 0 28 28" fill="none" xmlns="http://www.w3.org/2000/svg">
<g clip-path="url(#clip0_789_746)">
<path d="M16.2443 13.7662L13.0999 12.299C12.8255 12.1716 12.6001 12.3144 12.6001 12.6182V15.3818C12.6001 15.6856 12.8255 15.8284 13.0999 15.701L16.2429 14.2338C16.5187 14.105 16.5187 13.895 16.2443 13.7662ZM14.0001 0.559998C6.57726 0.559998 0.560059 6.5772 0.560059 14C0.560059 21.4228 6.57726 27.44 14.0001 27.44C21.4229 27.44 27.4401 21.4228 27.4401 14C27.4401 6.5772 21.4229 0.559998 14.0001 0.559998ZM14.0001 19.46C7.12046 19.46 7.00006 18.8398 7.00006 14C7.00006 9.1602 7.12046 8.54 14.0001 8.54C20.8797 8.54 21.0001 9.1602 21.0001 14C21.0001 18.8398 20.8797 19.46 14.0001 19.46Z" fill="white"/>
</g>
<defs>
<clipPath id="clip0_789_746">
<rect width="28" height="28" fill="white"/>
</clipPath>
</defs>
</svg>
