<svg width="28" height="28" viewBox="0 0 28 28" fill="none" xmlns="http://www.w3.org/2000/svg">
<g clip-path="url(#clip0_789_734)">
<path d="M14.0001 0.559998C6.57726 0.559998 0.560059 6.5772 0.560059 14C0.560059 21.4228 6.57726 27.44 14.0001 27.44C21.4229 27.44 27.4401 21.4228 27.4401 14C27.4401 6.5772 21.4229 0.559998 14.0001 0.559998ZM19.4671 11.5696C19.4727 11.6844 19.4741 11.7992 19.4741 11.9112C19.4741 15.4112 16.8127 19.4446 11.9435 19.4446C10.5047 19.447 9.09581 19.0338 7.88626 18.2546C8.09206 18.2798 8.30346 18.2896 8.51766 18.2896C9.75806 18.2896 10.8991 17.8682 11.8049 17.157C11.2529 17.1462 10.718 16.9634 10.2748 16.6341C9.83163 16.3049 9.50221 15.8456 9.33246 15.3202C9.72888 15.3956 10.1372 15.3798 10.5267 15.274C9.92753 15.1528 9.38874 14.8282 9.00165 14.3551C8.61456 13.8821 8.40301 13.2897 8.40286 12.6784V12.6462C8.75986 12.8436 9.16866 12.964 9.60266 12.978C9.04098 12.6041 8.64336 12.0297 8.49112 11.3724C8.33888 10.715 8.44353 10.0244 8.78366 9.4416C9.4486 10.2592 10.2778 10.928 11.2177 11.4048C12.1575 11.8816 13.187 12.1557 14.2395 12.2094C14.1057 11.6414 14.1632 11.0452 14.4033 10.5133C14.6433 9.98144 15.0523 9.54378 15.5668 9.26837C16.0812 8.99295 16.6722 8.89521 17.2479 8.99034C17.8236 9.08547 18.3518 9.36813 18.7503 9.7944C19.3427 9.67718 19.9108 9.45987 20.4303 9.1518C20.2328 9.76519 19.8194 10.286 19.2669 10.6176C19.7916 10.5544 20.3041 10.4133 20.7873 10.199C20.4323 10.7309 19.9852 11.195 19.4671 11.5696Z" fill="white"/>
</g>
<defs>
<clipPath id="clip0_789_734">
<rect width="28" height="28" fill="white"/>
</clipPath>
</defs>
</svg>
