<svg width="28" height="28" viewBox="0 0 28 28" fill="none" xmlns="http://www.w3.org/2000/svg">
<rect width="28" height="28" rx="14" fill="white"/>
<path d="M20.0572 8.96577C18.9488 8.45731 17.7488 8.08826 16.4988 7.87504C16.4878 7.87469 16.4769 7.87672 16.4668 7.88097C16.4568 7.88522 16.4477 7.89159 16.4404 7.89964C16.2904 8.17027 16.1154 8.52291 15.9988 8.79355C14.6729 8.59672 13.3245 8.59672 11.9987 8.79355C11.882 8.51471 11.707 8.17027 11.5486 7.89964C11.5403 7.88324 11.5153 7.87504 11.4903 7.87504C10.2403 8.08826 9.04857 8.45731 7.93188 8.96577C7.92354 8.96577 7.91521 8.97397 7.90688 8.98217C5.64015 12.32 5.01513 15.5676 5.32347 18.7823C5.32347 18.7987 5.33181 18.8151 5.34847 18.8233C6.84851 19.9059 8.29022 20.562 9.71526 20.9966C9.74026 21.0048 9.76526 20.9966 9.77359 20.9802C10.1069 20.5291 10.4069 20.0535 10.6653 19.5532C10.682 19.5204 10.6653 19.4876 10.632 19.4794C10.1569 19.299 9.70693 19.0858 9.26525 18.8397C9.23191 18.8233 9.23191 18.7741 9.25691 18.7495C9.34858 18.6839 9.44025 18.6101 9.53192 18.5445C9.54859 18.5281 9.57359 18.5281 9.59026 18.5363C12.457 19.8239 15.5488 19.8239 18.3822 18.5363C18.3988 18.5281 18.4238 18.5281 18.4405 18.5445C18.5322 18.6183 18.6238 18.6839 18.7155 18.7577C18.7488 18.7823 18.7488 18.8315 18.7072 18.8479C18.2738 19.1022 17.8155 19.3072 17.3405 19.4876C17.3071 19.4958 17.2988 19.5368 17.3071 19.5614C17.5738 20.0617 17.8738 20.5373 18.1988 20.9884C18.2238 20.9966 18.2488 21.0048 18.2738 20.9966C19.7072 20.562 21.1489 19.9059 22.6489 18.8233C22.6656 18.8151 22.6739 18.7987 22.6739 18.7823C23.0406 15.0673 22.0656 11.8443 20.0905 8.98217C20.0822 8.97397 20.0739 8.96577 20.0572 8.96577ZM11.0986 16.8223C10.2403 16.8223 9.52359 16.0432 9.52359 15.0837C9.52359 14.1242 10.2236 13.3451 11.0986 13.3451C11.982 13.3451 12.682 14.1324 12.6737 15.0837C12.6737 16.0432 11.9737 16.8223 11.0986 16.8223ZM16.9071 16.8223C16.0488 16.8223 15.3321 16.0432 15.3321 15.0837C15.3321 14.1242 16.0321 13.3451 16.9071 13.3451C17.7905 13.3451 18.4905 14.1324 18.4822 15.0837C18.4822 16.0432 17.7905 16.8223 16.9071 16.8223Z" fill="#090909"/>
</svg>
