<svg width="989" height="186" viewBox="0 0 989 186" fill="none" xmlns="http://www.w3.org/2000/svg">
<path d="M255.628 3.90909H271.557L288.381 44.9545H289.097L305.921 3.90909H321.85V65H309.321V25.2372H308.814L293.004 64.7017H284.473L268.664 25.0881H268.156V65H255.628V3.90909ZM361.635 45.4915V19.1818H374.342V65H362.142V56.6776H361.665C360.631 59.3622 358.91 61.5199 356.504 63.1506C354.118 64.7812 351.204 65.5966 347.764 65.5966C344.702 65.5966 342.007 64.9006 339.68 63.5085C337.354 62.1165 335.534 60.1378 334.221 57.5724C332.929 55.0071 332.273 51.9347 332.253 48.3551V19.1818H344.96V46.0881C344.98 48.7926 345.706 50.9304 347.138 52.5014C348.569 54.0724 350.488 54.858 352.895 54.858C354.426 54.858 355.858 54.5099 357.19 53.8139C358.523 53.098 359.596 52.044 360.412 50.652C361.247 49.2599 361.655 47.5398 361.635 45.4915ZM397.214 3.90909V65H384.507V3.90909H397.214ZM431.764 19.1818V28.7273H404.172V19.1818H431.764ZM410.436 8.20454H423.143V50.9205C423.143 52.0937 423.322 53.0085 423.68 53.6648C424.038 54.3011 424.535 54.7486 425.172 55.0071C425.828 55.2656 426.584 55.3949 427.439 55.3949C428.035 55.3949 428.632 55.3452 429.229 55.2457C429.825 55.1264 430.282 55.0369 430.601 54.9773L432.599 64.4332C431.963 64.6321 431.068 64.8608 429.915 65.1193C428.761 65.3977 427.359 65.5668 425.709 65.6264C422.646 65.7457 419.961 65.3381 417.655 64.4034C415.368 63.4687 413.588 62.017 412.315 60.0483C411.042 58.0795 410.416 55.5937 410.436 52.5909V8.20454ZM440.042 65V19.1818H452.749V65H440.042ZM446.425 13.2756C444.536 13.2756 442.915 12.6491 441.563 11.3963C440.231 10.1236 439.564 8.60227 439.564 6.83238C439.564 5.08238 440.231 3.58096 441.563 2.32812C442.915 1.0554 444.536 0.419031 446.425 0.419031C448.314 0.419031 449.925 1.0554 451.258 2.32812C452.61 3.58096 453.286 5.08238 453.286 6.83238C453.286 8.60227 452.61 10.1236 451.258 11.3963C449.925 12.6491 448.314 13.2756 446.425 13.2756ZM491.475 34.8722V44.9545H463.615V34.8722H491.475ZM556.444 25.2969H543.379C543.14 23.6065 542.653 22.1051 541.917 20.7926C541.181 19.4602 540.237 18.3267 539.083 17.392C537.93 16.4574 536.597 15.7415 535.086 15.2443C533.595 14.7472 531.974 14.4986 530.224 14.4986C527.062 14.4986 524.308 15.2841 521.961 16.8551C519.615 18.4062 517.795 20.6733 516.502 23.6562C515.21 26.6193 514.563 30.2187 514.563 34.4545C514.563 38.8097 515.21 42.4687 516.502 45.4318C517.815 48.3949 519.644 50.6321 521.991 52.1435C524.338 53.6548 527.052 54.4105 530.134 54.4105C531.865 54.4105 533.465 54.1818 534.937 53.7244C536.428 53.267 537.751 52.6009 538.904 51.7259C540.058 50.831 541.012 49.7472 541.768 48.4744C542.544 47.2017 543.08 45.75 543.379 44.1193L556.444 44.179C556.106 46.983 555.261 49.6875 553.909 52.2926C552.576 54.8778 550.776 57.1946 548.509 59.2429C546.262 61.2713 543.578 62.8821 540.455 64.0753C537.353 65.2486 533.843 65.8352 529.926 65.8352C524.477 65.8352 519.605 64.6023 515.309 62.1364C511.034 59.6705 507.653 56.1009 505.167 51.4276C502.701 46.7543 501.468 41.0966 501.468 34.4545C501.468 27.7926 502.721 22.125 505.227 17.4517C507.732 12.7784 511.133 9.21875 515.428 6.77273C519.724 4.30682 524.556 3.07386 529.926 3.07386C533.465 3.07386 536.747 3.57102 539.769 4.56534C542.812 5.55966 545.507 7.01136 547.853 8.92045C550.2 10.8097 552.109 13.1264 553.58 15.8707C555.072 18.6151 556.026 21.7571 556.444 25.2969ZM578.175 38.5114V65H565.468V3.90909H577.817V27.2656H578.354C579.388 24.5611 581.058 22.4432 583.365 20.9119C585.672 19.3608 588.566 18.5852 592.046 18.5852C595.227 18.5852 598.002 19.2812 600.368 20.6733C602.754 22.0455 604.604 24.0241 605.916 26.6094C607.249 29.1747 607.905 32.2472 607.885 35.8267V65H595.178V38.0938C595.198 35.2699 594.482 33.0724 593.03 31.5014C591.598 29.9304 589.59 29.1449 587.004 29.1449C585.274 29.1449 583.743 29.5128 582.411 30.2486C581.098 30.9844 580.064 32.0582 579.308 33.4702C578.573 34.8622 578.195 36.5426 578.175 38.5114ZM630.951 65.8651C628.028 65.8651 625.422 65.358 623.135 64.3438C620.849 63.3097 619.039 61.7884 617.706 59.7798C616.394 57.7514 615.738 55.2259 615.738 52.2031C615.738 49.6577 616.205 47.5199 617.14 45.7898C618.074 44.0597 619.347 42.6676 620.958 41.6136C622.569 40.5597 624.398 39.7642 626.447 39.2273C628.515 38.6903 630.682 38.3125 632.949 38.0938C635.614 37.8153 637.762 37.5568 639.393 37.3182C641.023 37.0597 642.207 36.6818 642.942 36.1847C643.678 35.6875 644.046 34.9517 644.046 33.9773V33.7983C644.046 31.9091 643.449 30.4474 642.256 29.4134C641.083 28.3793 639.412 27.8622 637.245 27.8622C634.958 27.8622 633.138 28.3693 631.786 29.3835C630.434 30.3778 629.539 31.6307 629.101 33.142L617.349 32.1875C617.945 29.4034 619.118 26.9972 620.868 24.9688C622.618 22.9205 624.876 21.3494 627.64 20.2557C630.424 19.142 633.645 18.5852 637.305 18.5852C639.85 18.5852 642.286 18.8835 644.613 19.4801C646.959 20.0767 649.037 21.0014 650.847 22.2543C652.677 23.5071 654.118 25.1179 655.172 27.0866C656.226 29.0355 656.753 31.3722 656.753 34.0966V65H644.702V58.6463H644.344C643.608 60.0781 642.624 61.3409 641.391 62.4347C640.158 63.5085 638.677 64.3537 636.947 64.9702C635.216 65.5668 633.218 65.8651 630.951 65.8651ZM634.59 57.0952C636.459 57.0952 638.11 56.7273 639.542 55.9915C640.974 55.2358 642.097 54.2216 642.912 52.9489C643.728 51.6761 644.135 50.2344 644.135 48.6236V43.7614C643.738 44.0199 643.191 44.2585 642.495 44.4773C641.819 44.6761 641.053 44.8651 640.198 45.044C639.343 45.2031 638.488 45.3523 637.633 45.4915C636.778 45.6108 636.002 45.7202 635.306 45.8196C633.814 46.0384 632.512 46.3864 631.398 46.8636C630.285 47.3409 629.42 47.9872 628.803 48.8026C628.187 49.598 627.878 50.5923 627.878 51.7855C627.878 53.5156 628.505 54.8381 629.758 55.7528C631.03 56.6477 632.641 57.0952 634.59 57.0952ZM666.612 65V19.1818H679.319V65H666.612ZM672.996 13.2756C671.106 13.2756 669.486 12.6491 668.133 11.3963C666.801 10.1236 666.135 8.60227 666.135 6.83238C666.135 5.08238 666.801 3.58096 668.133 2.32812C669.486 1.0554 671.106 0.419031 672.996 0.419031C674.885 0.419031 676.496 1.0554 677.828 2.32812C679.18 3.58096 679.856 5.08238 679.856 6.83238C679.856 8.60227 679.18 10.1236 677.828 11.3963C676.496 12.6491 674.885 13.2756 672.996 13.2756ZM702.206 38.5114V65H689.499V19.1818H701.61V27.2656H702.146C703.161 24.6009 704.861 22.4929 707.247 20.9418C709.634 19.3707 712.527 18.5852 715.928 18.5852C719.11 18.5852 721.884 19.2812 724.25 20.6733C726.617 22.0653 728.456 24.054 729.769 26.6392C731.081 29.2045 731.737 32.267 731.737 35.8267V65H719.03V38.0938C719.05 35.2898 718.334 33.1023 716.882 31.5312C715.431 29.9403 713.432 29.1449 710.887 29.1449C709.176 29.1449 707.665 29.5128 706.352 30.2486C705.06 30.9844 704.046 32.0582 703.31 33.4702C702.594 34.8622 702.226 36.5426 702.206 38.5114Z" fill="url(#paint0_linear_667_1512)"/>
<path d="M21.921 167H0.264737V105.909H22.1C28.2449 105.909 33.5346 107.132 37.9693 109.578C42.4039 112.004 45.8145 115.494 48.2008 120.048C50.6071 124.602 51.8102 130.051 51.8102 136.395C51.8102 142.759 50.6071 148.227 48.2008 152.801C45.8145 157.375 42.3841 160.885 37.9096 163.331C33.4551 165.777 28.1255 167 21.921 167ZM13.1809 155.933H21.3841C25.2022 155.933 28.4139 155.257 31.019 153.905C33.644 152.533 35.6128 150.415 36.9253 147.551C38.2576 144.668 38.9238 140.949 38.9238 136.395C38.9238 131.881 38.2576 128.192 36.9253 125.328C35.6128 122.464 33.6539 120.357 31.0488 119.004C28.4437 117.652 25.2321 116.976 21.4139 116.976H13.1809V155.933ZM82.0201 167.895C77.307 167.895 73.2502 166.94 69.8496 165.031C66.4689 163.102 63.8638 160.378 62.0343 156.858C60.2047 153.318 59.29 149.132 59.29 144.3C59.29 139.587 60.2047 135.45 62.0343 131.891C63.8638 128.331 66.4391 125.557 69.7601 123.568C73.101 121.58 77.0186 120.585 81.513 120.585C84.5357 120.585 87.3496 121.072 89.9547 122.047C92.5797 123.001 94.8667 124.443 96.8155 126.372C98.7843 128.301 100.316 130.727 101.409 133.651C102.503 136.554 103.05 139.955 103.05 143.852V147.342H64.361V139.467H91.0882C91.0882 137.638 90.6905 136.017 89.8951 134.605C89.0996 133.193 87.9959 132.089 86.584 131.294C85.1919 130.479 83.5712 130.071 81.7218 130.071C79.7928 130.071 78.0826 130.518 76.5911 131.413C75.1195 132.288 73.9661 133.472 73.1309 134.963C72.2956 136.435 71.8681 138.075 71.8482 139.885V147.372C71.8482 149.639 72.2658 151.598 73.101 153.249C73.9561 154.899 75.1593 156.172 76.7104 157.067C78.2615 157.962 80.101 158.409 82.2289 158.409C83.6408 158.409 84.9334 158.21 86.1067 157.812C87.28 157.415 88.2843 156.818 89.1195 156.023C89.9547 155.227 90.5911 154.253 91.0286 153.099L102.781 153.875C102.185 156.699 100.962 159.165 99.1124 161.273C97.2828 163.361 94.9164 164.991 92.013 166.165C89.1294 167.318 85.7985 167.895 82.0201 167.895ZM132.044 167.895C127.351 167.895 123.314 166.901 119.933 164.912C116.573 162.903 113.987 160.119 112.178 156.56C110.388 153 109.493 148.903 109.493 144.27C109.493 139.577 110.398 135.46 112.208 131.92C114.037 128.361 116.632 125.587 119.993 123.598C123.354 121.589 127.351 120.585 131.985 120.585C135.982 120.585 139.482 121.311 142.485 122.763C145.487 124.214 147.864 126.253 149.614 128.878C151.364 131.503 152.328 134.585 152.507 138.125H140.516C140.178 135.838 139.283 133.999 137.831 132.607C136.399 131.195 134.52 130.489 132.193 130.489C130.225 130.489 128.504 131.026 127.033 132.099C125.581 133.153 124.448 134.695 123.632 136.723C122.817 138.751 122.409 141.207 122.409 144.091C122.409 147.014 122.807 149.5 123.602 151.548C124.418 153.597 125.561 155.158 127.033 156.232C128.504 157.305 130.225 157.842 132.193 157.842C133.645 157.842 134.948 157.544 136.101 156.947C137.274 156.351 138.239 155.486 138.994 154.352C139.77 153.199 140.277 151.817 140.516 150.206H152.507C152.308 153.706 151.354 156.788 149.644 159.453C147.953 162.098 145.617 164.166 142.634 165.658C139.651 167.149 136.121 167.895 132.044 167.895ZM181.524 167.895C176.811 167.895 172.754 166.94 169.354 165.031C165.973 163.102 163.368 160.378 161.538 156.858C159.709 153.318 158.794 149.132 158.794 144.3C158.794 139.587 159.709 135.45 161.538 131.891C163.368 128.331 165.943 125.557 169.264 123.568C172.605 121.58 176.523 120.585 181.017 120.585C184.04 120.585 186.854 121.072 189.459 122.047C192.084 123.001 194.371 124.443 196.319 126.372C198.288 128.301 199.819 130.727 200.913 133.651C202.007 136.554 202.554 139.955 202.554 143.852V147.342H163.865V139.467H190.592C190.592 137.638 190.194 136.017 189.399 134.605C188.604 133.193 187.5 132.089 186.088 131.294C184.696 130.479 183.075 130.071 181.226 130.071C179.297 130.071 177.586 130.518 176.095 131.413C174.623 132.288 173.47 133.472 172.635 134.963C171.8 136.435 171.372 138.075 171.352 139.885V147.372C171.352 149.639 171.77 151.598 172.605 153.249C173.46 154.899 174.663 156.172 176.214 157.067C177.765 157.962 179.605 158.409 181.733 158.409C183.145 158.409 184.437 158.21 185.611 157.812C186.784 157.415 187.788 156.818 188.623 156.023C189.459 155.227 190.095 154.253 190.532 153.099L202.285 153.875C201.689 156.699 200.466 159.165 198.616 161.273C196.787 163.361 194.42 164.991 191.517 166.165C188.633 167.318 185.302 167.895 181.524 167.895ZM223.554 140.511V167H210.846V121.182H222.957V129.266H223.494C224.508 126.601 226.209 124.493 228.595 122.942C230.981 121.371 233.875 120.585 237.275 120.585C240.457 120.585 243.231 121.281 245.598 122.673C247.964 124.065 249.804 126.054 251.116 128.639C252.429 131.205 253.085 134.267 253.085 137.827V167H240.378V140.094C240.398 137.29 239.682 135.102 238.23 133.531C236.778 131.94 234.78 131.145 232.234 131.145C230.524 131.145 229.013 131.513 227.7 132.249C226.407 132.984 225.393 134.058 224.657 135.47C223.942 136.862 223.574 138.543 223.554 140.511ZM287.471 121.182V130.727H259.879V121.182H287.471ZM266.143 110.205H278.85V152.92C278.85 154.094 279.029 155.009 279.387 155.665C279.745 156.301 280.242 156.749 280.879 157.007C281.535 157.266 282.291 157.395 283.146 157.395C283.742 157.395 284.339 157.345 284.936 157.246C285.532 157.126 285.99 157.037 286.308 156.977L288.306 166.433C287.67 166.632 286.775 166.861 285.622 167.119C284.468 167.398 283.066 167.567 281.416 167.626C278.353 167.746 275.669 167.338 273.362 166.403C271.075 165.469 269.295 164.017 268.022 162.048C266.749 160.08 266.123 157.594 266.143 154.591V110.205ZM295.749 167V121.182H308.068V129.176H308.546C309.381 126.332 310.783 124.185 312.752 122.733C314.72 121.261 316.987 120.526 319.553 120.526C320.189 120.526 320.875 120.565 321.611 120.645C322.347 120.724 322.993 120.834 323.55 120.973V132.249C322.953 132.07 322.128 131.911 321.074 131.771C320.02 131.632 319.056 131.562 318.181 131.562C316.311 131.562 314.641 131.97 313.169 132.786C311.718 133.581 310.564 134.695 309.709 136.126C308.874 137.558 308.456 139.209 308.456 141.078V167H295.749ZM341.873 167.865C338.949 167.865 336.344 167.358 334.057 166.344C331.77 165.31 329.961 163.788 328.628 161.78C327.316 159.751 326.66 157.226 326.66 154.203C326.66 151.658 327.127 149.52 328.062 147.79C328.996 146.06 330.269 144.668 331.88 143.614C333.491 142.56 335.32 141.764 337.368 141.227C339.437 140.69 341.604 140.312 343.871 140.094C346.536 139.815 348.684 139.557 350.314 139.318C351.945 139.06 353.128 138.682 353.864 138.185C354.6 137.687 354.968 136.952 354.968 135.977V135.798C354.968 133.909 354.371 132.447 353.178 131.413C352.005 130.379 350.334 129.862 348.167 129.862C345.88 129.862 344.06 130.369 342.708 131.384C341.356 132.378 340.461 133.631 340.023 135.142L328.27 134.188C328.867 131.403 330.04 128.997 331.79 126.969C333.54 124.92 335.797 123.349 338.562 122.256C341.346 121.142 344.567 120.585 348.226 120.585C350.772 120.585 353.208 120.884 355.535 121.48C357.881 122.077 359.959 123.001 361.769 124.254C363.599 125.507 365.04 127.118 366.094 129.087C367.148 131.036 367.675 133.372 367.675 136.097V167H355.624V160.646H355.266C354.53 162.078 353.546 163.341 352.313 164.435C351.08 165.509 349.599 166.354 347.868 166.97C346.138 167.567 344.14 167.865 341.873 167.865ZM345.512 159.095C347.381 159.095 349.032 158.727 350.464 157.991C351.895 157.236 353.019 156.222 353.834 154.949C354.65 153.676 355.057 152.234 355.057 150.624V145.761C354.66 146.02 354.113 146.259 353.417 146.477C352.741 146.676 351.975 146.865 351.12 147.044C350.265 147.203 349.41 147.352 348.555 147.491C347.699 147.611 346.924 147.72 346.228 147.82C344.736 148.038 343.434 148.386 342.32 148.864C341.206 149.341 340.341 149.987 339.725 150.803C339.108 151.598 338.8 152.592 338.8 153.786C338.8 155.516 339.427 156.838 340.68 157.753C341.952 158.648 343.563 159.095 345.512 159.095ZM390.241 105.909V167H377.534V105.909H390.241ZM400.421 167V121.182H413.128V167H400.421ZM406.804 115.276C404.915 115.276 403.294 114.649 401.942 113.396C400.61 112.124 399.943 110.602 399.943 108.832C399.943 107.082 400.61 105.581 401.942 104.328C403.294 103.055 404.915 102.419 406.804 102.419C408.693 102.419 410.304 103.055 411.637 104.328C412.989 105.581 413.665 107.082 413.665 108.832C413.665 110.602 412.989 112.124 411.637 113.396C410.304 114.649 408.693 115.276 406.804 115.276ZM423.069 167V159.423L445.501 131.652V131.324H423.844V121.182H460.803V129.445L439.743 156.53V156.858H461.579V167H423.069ZM490.864 167.895C486.151 167.895 482.094 166.94 478.693 165.031C475.313 163.102 472.708 160.378 470.878 156.858C469.048 153.318 468.134 149.132 468.134 144.3C468.134 139.587 469.048 135.45 470.878 131.891C472.708 128.331 475.283 125.557 478.604 123.568C481.945 121.58 485.862 120.585 490.357 120.585C493.379 120.585 496.193 121.072 498.798 122.047C501.423 123.001 503.71 124.443 505.659 126.372C507.628 128.301 509.159 130.727 510.253 133.651C511.347 136.554 511.894 139.955 511.894 143.852V147.342H473.205V139.467H499.932C499.932 137.638 499.534 136.017 498.739 134.605C497.943 133.193 496.84 132.089 495.428 131.294C494.036 130.479 492.415 130.071 490.566 130.071C488.637 130.071 486.926 130.518 485.435 131.413C483.963 132.288 482.81 133.472 481.975 134.963C481.139 136.435 480.712 138.075 480.692 139.885V147.372C480.692 149.639 481.11 151.598 481.945 153.249C482.8 154.899 484.003 156.172 485.554 157.067C487.105 157.962 488.945 158.409 491.073 158.409C492.485 158.409 493.777 158.21 494.95 157.812C496.124 157.415 497.128 156.818 497.963 156.023C498.798 155.227 499.435 154.253 499.872 153.099L511.625 153.875C511.029 156.699 509.806 159.165 507.956 161.273C506.127 163.361 503.76 164.991 500.857 166.165C497.973 167.318 494.642 167.895 490.864 167.895ZM537.07 167.746C533.59 167.746 530.438 166.851 527.614 165.061C524.81 163.251 522.583 160.597 520.932 157.097C519.301 153.577 518.486 149.261 518.486 144.151C518.486 138.901 519.331 134.536 521.021 131.055C522.712 127.555 524.959 124.94 527.763 123.21C530.587 121.46 533.679 120.585 537.04 120.585C539.605 120.585 541.743 121.023 543.453 121.898C545.183 122.753 546.575 123.827 547.629 125.119C548.703 126.392 549.519 127.645 550.075 128.878H550.463V105.909H563.141V167H550.612V159.662H550.075C549.479 160.935 548.634 162.197 547.54 163.45C546.466 164.683 545.064 165.707 543.334 166.523C541.624 167.338 539.536 167.746 537.07 167.746ZM541.097 157.634C543.145 157.634 544.875 157.077 546.287 155.963C547.719 154.83 548.813 153.249 549.568 151.22C550.344 149.192 550.732 146.815 550.732 144.091C550.732 141.366 550.354 139 549.598 136.991C548.843 134.983 547.749 133.432 546.317 132.338C544.885 131.244 543.145 130.697 541.097 130.697C539.009 130.697 537.249 131.264 535.817 132.398C534.385 133.531 533.301 135.102 532.566 137.111C531.83 139.119 531.462 141.446 531.462 144.091C531.462 146.756 531.83 149.112 532.566 151.161C533.321 153.189 534.405 154.78 535.817 155.933C537.249 157.067 539.009 157.634 541.097 157.634ZM593.269 167V105.909H634.433V116.558H606.185V131.115H632.316V141.764H606.185V156.351H634.553V167H593.269ZM655.083 121.182L663.495 137.2L672.116 121.182H685.151L671.877 144.091L685.509 167H672.533L663.495 151.161L654.606 167H641.481L655.083 144.091L641.958 121.182H655.083ZM711.759 167.895C707.066 167.895 703.029 166.901 699.648 164.912C696.287 162.903 693.702 160.119 691.893 156.56C690.103 153 689.208 148.903 689.208 144.27C689.208 139.577 690.113 135.46 691.922 131.92C693.752 128.361 696.347 125.587 699.708 123.598C703.069 121.589 707.066 120.585 711.699 120.585C715.697 120.585 719.197 121.311 722.199 122.763C725.202 124.214 727.579 126.253 729.329 128.878C731.079 131.503 732.043 134.585 732.222 138.125H720.231C719.893 135.838 718.998 133.999 717.546 132.607C716.114 131.195 714.235 130.489 711.908 130.489C709.939 130.489 708.219 131.026 706.748 132.099C705.296 133.153 704.162 134.695 703.347 136.723C702.532 138.751 702.124 141.207 702.124 144.091C702.124 147.014 702.522 149.5 703.317 151.548C704.133 153.597 705.276 155.158 706.748 156.232C708.219 157.305 709.939 157.842 711.908 157.842C713.36 157.842 714.662 157.544 715.816 156.947C716.989 156.351 717.954 155.486 718.709 154.352C719.485 153.199 719.992 151.817 720.231 150.206H732.222C732.023 153.706 731.069 156.788 729.358 159.453C727.668 162.098 725.332 164.166 722.349 165.658C719.366 167.149 715.836 167.895 711.759 167.895ZM753.066 140.511V167H740.358V105.909H752.708V129.266H753.244C754.279 126.561 755.949 124.443 758.256 122.912C760.563 121.361 763.456 120.585 766.936 120.585C770.118 120.585 772.892 121.281 775.259 122.673C777.645 124.045 779.494 126.024 780.807 128.609C782.139 131.175 782.796 134.247 782.776 137.827V167H770.068V140.094C770.088 137.27 769.372 135.072 767.921 133.501C766.489 131.93 764.48 131.145 761.895 131.145C760.165 131.145 758.634 131.513 757.301 132.249C755.989 132.984 754.955 134.058 754.199 135.47C753.463 136.862 753.085 138.543 753.066 140.511ZM805.841 167.865C802.918 167.865 800.313 167.358 798.026 166.344C795.739 165.31 793.93 163.788 792.597 161.78C791.285 159.751 790.628 157.226 790.628 154.203C790.628 151.658 791.096 149.52 792.03 147.79C792.965 146.06 794.238 144.668 795.849 143.614C797.459 142.56 799.289 141.764 801.337 141.227C803.405 140.69 805.573 140.312 807.84 140.094C810.505 139.815 812.653 139.557 814.283 139.318C815.914 139.06 817.097 138.682 817.833 138.185C818.569 137.687 818.937 136.952 818.937 135.977V135.798C818.937 133.909 818.34 132.447 817.147 131.413C815.974 130.379 814.303 129.862 812.135 129.862C809.849 129.862 808.029 130.369 806.677 131.384C805.324 132.378 804.43 133.631 803.992 135.142L792.239 134.188C792.836 131.403 794.009 128.997 795.759 126.969C797.509 124.92 799.766 123.349 802.53 122.256C805.314 121.142 808.536 120.585 812.195 120.585C814.741 120.585 817.177 120.884 819.503 121.48C821.85 122.077 823.928 123.001 825.738 124.254C827.567 125.507 829.009 127.118 830.063 129.087C831.117 131.036 831.644 133.372 831.644 136.097V167H819.593V160.646H819.235C818.499 162.078 817.515 163.341 816.282 164.435C815.049 165.509 813.567 166.354 811.837 166.97C810.107 167.567 808.108 167.865 805.841 167.865ZM809.481 159.095C811.35 159.095 813.001 158.727 814.432 157.991C815.864 157.236 816.988 156.222 817.803 154.949C818.618 153.676 819.026 152.234 819.026 150.624V145.761C818.628 146.02 818.082 146.259 817.385 146.477C816.709 146.676 815.944 146.865 815.089 147.044C814.233 147.203 813.378 147.352 812.523 147.491C811.668 147.611 810.893 147.72 810.197 147.82C808.705 148.038 807.403 148.386 806.289 148.864C805.175 149.341 804.31 149.987 803.694 150.803C803.077 151.598 802.769 152.592 802.769 153.786C802.769 155.516 803.395 156.838 804.648 157.753C805.921 158.648 807.532 159.095 809.481 159.095ZM854.21 140.511V167H841.503V121.182H853.613V129.266H854.15C855.165 126.601 856.865 124.493 859.251 122.942C861.638 121.371 864.531 120.585 867.932 120.585C871.113 120.585 873.888 121.281 876.254 122.673C878.621 124.065 880.46 126.054 881.773 128.639C883.085 131.205 883.741 134.267 883.741 137.827V167H871.034V140.094C871.054 137.29 870.338 135.102 868.886 133.531C867.434 131.94 865.436 131.145 862.89 131.145C861.18 131.145 859.669 131.513 858.356 132.249C857.064 132.984 856.05 134.058 855.314 135.47C854.598 136.862 854.23 138.543 854.21 140.511ZM914.399 185.136C910.282 185.136 906.752 184.57 903.809 183.436C900.886 182.322 898.559 180.801 896.829 178.872C895.099 176.943 893.975 174.776 893.458 172.369L905.211 170.788C905.569 171.703 906.136 172.558 906.911 173.354C907.687 174.149 908.711 174.786 909.984 175.263C911.276 175.76 912.847 176.009 914.697 176.009C917.461 176.009 919.738 175.332 921.528 173.98C923.338 172.648 924.242 170.411 924.242 167.268V158.886H923.705C923.149 160.159 922.313 161.362 921.2 162.496C920.086 163.629 918.654 164.554 916.904 165.27C915.154 165.986 913.066 166.344 910.64 166.344C907.2 166.344 904.068 165.548 901.244 163.957C898.44 162.347 896.203 159.891 894.532 156.589C892.882 153.268 892.056 149.072 892.056 144.001C892.056 138.811 892.901 134.476 894.592 130.996C896.282 127.516 898.529 124.911 901.333 123.18C904.157 121.45 907.249 120.585 910.61 120.585C913.176 120.585 915.323 121.023 917.053 121.898C918.784 122.753 920.176 123.827 921.23 125.119C922.303 126.392 923.129 127.645 923.705 128.878H924.183V121.182H936.801V167.447C936.801 171.345 935.846 174.607 933.937 177.232C932.028 179.857 929.383 181.825 926.002 183.138C922.642 184.47 918.774 185.136 914.399 185.136ZM914.667 156.798C916.715 156.798 918.445 156.291 919.857 155.277C921.289 154.243 922.383 152.771 923.139 150.862C923.914 148.933 924.302 146.626 924.302 143.942C924.302 141.257 923.924 138.93 923.169 136.962C922.413 134.973 921.319 133.432 919.887 132.338C918.455 131.244 916.715 130.697 914.667 130.697C912.579 130.697 910.819 131.264 909.387 132.398C907.955 133.511 906.872 135.062 906.136 137.051C905.4 139.04 905.032 141.337 905.032 143.942C905.032 146.587 905.4 148.874 906.136 150.803C906.892 152.712 907.975 154.193 909.387 155.247C910.819 156.281 912.579 156.798 914.667 156.798ZM967.794 167.895C963.08 167.895 959.024 166.94 955.623 165.031C952.242 163.102 949.637 160.378 947.808 156.858C945.978 153.318 945.063 149.132 945.063 144.3C945.063 139.587 945.978 135.45 947.808 131.891C949.637 128.331 952.213 125.557 955.534 123.568C958.874 121.58 962.792 120.585 967.286 120.585C970.309 120.585 973.123 121.072 975.728 122.047C978.353 123.001 980.64 124.443 982.589 126.372C984.558 128.301 986.089 130.727 987.183 133.651C988.276 136.554 988.823 139.955 988.823 143.852V147.342H950.134V139.467H976.862C976.862 137.638 976.464 136.017 975.669 134.605C974.873 133.193 973.769 132.089 972.357 131.294C970.965 130.479 969.345 130.071 967.495 130.071C965.566 130.071 963.856 130.518 962.365 131.413C960.893 132.288 959.74 133.472 958.904 134.963C958.069 136.435 957.642 138.075 957.622 139.885V147.372C957.622 149.639 958.039 151.598 958.874 153.249C959.73 154.899 960.933 156.172 962.484 157.067C964.035 157.962 965.874 158.409 968.002 158.409C969.414 158.409 970.707 158.21 971.88 157.812C973.053 157.415 974.058 156.818 974.893 156.023C975.728 155.227 976.365 154.253 976.802 153.099L988.555 153.875C987.958 156.699 986.735 159.165 984.886 161.273C983.056 163.361 980.69 164.991 977.786 166.165C974.903 167.318 971.572 167.895 967.794 167.895Z" fill="white"/>
<defs>
<linearGradient id="paint0_linear_667_1512" x1="-29" y1="85.0001" x2="1016" y2="85.0001" gradientUnits="userSpaceOnUse">
<stop stop-color="#0095EC"/>
<stop offset="1" stop-color="#154DDD"/>
</linearGradient>
</defs>
</svg>
